<svg width="18" height="20" viewBox="0 0 18 20" fill="none" xmlns="http://www.w3.org/2000/svg">
<path d="M9.07812 0C4.38812 0 0.578125 3.81 0.578125 8.5C0.578125 13.19 4.38812 17 9.07812 17H9.57812V20C14.4381 17.66 17.5781 13 17.5781 8.5C17.5781 3.81 13.7681 0 9.07812 0ZM10.0781 14.5H8.07812V12.5H10.0781V14.5ZM10.0781 11H8.07812C8.07812 7.75 11.0781 8 11.0781 6C11.0781 4.9 10.1781 4 9.07812 4C7.97813 4 7.07812 4.9 7.07812 6H5.07812C5.07812 3.79 6.86812 2 9.07812 2C11.2881 2 13.0781 3.79 13.0781 6C13.0781 8.5 10.0781 8.75 10.0781 11Z" fill="white"/>
</svg>
