<svg width="20" height="20" viewBox="0 0 20 20" fill="none" xmlns="http://www.w3.org/2000/svg">
<path d="M9.99984 1.6665C5.40484 1.6665 1.6665 5.40484 1.6665 9.99984C1.6665 14.5948 5.40484 18.3332 9.99984 18.3332C14.5948 18.3332 18.3332 14.5948 18.3332 9.99984C18.3332 5.40484 14.5948 1.6665 9.99984 1.6665ZM9.99984 16.6665C6.324 16.6665 3.33317 13.6757 3.33317 9.99984C3.33317 6.324 6.324 3.33317 9.99984 3.33317C13.6757 3.33317 16.6665 6.324 16.6665 9.99984C16.6665 13.6757 13.6757 16.6665 9.99984 16.6665Z" fill="#B7B7B7"/>
<path d="M10.8332 5.8335H9.1665V10.8335H14.1665V9.16683H10.8332V5.8335Z" fill="#B7B7B7"/>
</svg>
