<svg width="12" height="12" viewBox="0 0 12 12" fill="none" xmlns="http://www.w3.org/2000/svg">
<circle cx="6.0001" cy="6.0001" r="5.05" stroke="#727272" stroke-width="1.2"/>
<path d="M6.35467 7.21898H4.81556V6.24822H6.35467C6.59252 6.24822 6.78612 6.2095 6.93547 6.13206C7.08482 6.05186 7.19406 5.94123 7.26321 5.80018C7.33235 5.65913 7.36692 5.5001 7.36692 5.32309C7.36692 5.14332 7.33235 4.976 7.26321 4.82112C7.19406 4.66624 7.08482 4.54178 6.93547 4.44775C6.78612 4.35371 6.59252 4.3067 6.35467 4.3067H5.24701V9.37208H4.00244V3.33179H6.35467C6.82761 3.33179 7.23278 3.41752 7.5702 3.589C7.91038 3.75771 8.17036 3.99141 8.35013 4.2901C8.5299 4.5888 8.61978 4.93036 8.61978 5.3148C8.61978 5.70476 8.5299 6.04218 8.35013 6.32704C8.17036 6.61191 7.91038 6.83178 7.5702 6.98666C7.23278 7.14154 6.82761 7.21898 6.35467 7.21898Z" fill="#727272"/>
</svg>
