<svg width="23" height="24" viewBox="0 0 23 24" fill="none" xmlns="http://www.w3.org/2000/svg">
<path d="M19.5786 8.68994V3.99994H14.8886L11.5786 0.689941L8.26855 3.99994H3.57855V8.68994L0.268555 11.9999L3.57855 15.3099V19.9999H8.26855L11.5786 23.3099L14.8886 19.9999H19.5786V15.3099L22.8886 11.9999L19.5786 8.68994ZM11.5786 17.9999C10.6886 17.9999 9.83856 17.7999 9.07856 17.4499C11.1386 16.4999 12.5786 14.4199 12.5786 11.9999C12.5786 9.57994 11.1386 7.49994 9.07856 6.54994C9.83856 6.19994 10.6886 5.99994 11.5786 5.99994C14.8886 5.99994 17.5786 8.68994 17.5786 11.9999C17.5786 15.3099 14.8886 17.9999 11.5786 17.9999Z" fill="white"/>
</svg>
