<svg width="14" height="14" viewBox="0 0 14 14" fill="none" xmlns="http://www.w3.org/2000/svg">
<path d="M7.00016 0.333496C3.32016 0.333496 0.333496 3.32016 0.333496 7.00016C0.333496 10.6802 3.32016 13.6668 7.00016 13.6668C10.6802 13.6668 13.6668 10.6802 13.6668 7.00016C13.6668 3.32016 10.6802 0.333496 7.00016 0.333496ZM7.00016 2.3335C8.10683 2.3335 9.00016 3.22683 9.00016 4.3335C9.00016 5.44016 8.10683 6.3335 7.00016 6.3335C5.8935 6.3335 5.00016 5.44016 5.00016 4.3335C5.00016 3.22683 5.8935 2.3335 7.00016 2.3335ZM7.00016 11.8002C5.3335 11.8002 3.86016 10.9468 3.00016 9.6535C3.02016 8.32683 5.66683 7.60016 7.00016 7.60016C8.32683 7.60016 10.9802 8.32683 11.0002 9.6535C10.1402 10.9468 8.66683 11.8002 7.00016 11.8002Z" fill="#727272"/>
</svg>
